<svg width="466" height="111" viewBox="0 0 466 111" fill="none" xmlns="http://www.w3.org/2000/svg">
<g filter="url(#filter0_d)">
<rect width="450" height="95.6385" transform="translate(8)" fill="#E5E5E5"/>
<g filter="url(#filter1_d)">
<path d="M8 0H458V95.6385H8V0Z" fill="#E5E5E5"/>
<path d="M8.90225 0.90225H457.098V94.7362H8.90225V0.90225Z" stroke="black" stroke-width="1.8045"/>
</g>
<path d="M102.147 58.8719V35.78H108.967C111.008 35.78 112.816 36.2346 114.391 37.1439C115.977 38.0532 117.204 39.3432 118.071 41.0137C118.938 42.6843 119.371 44.5981 119.371 46.755V47.9128C119.371 50.1014 118.932 52.0258 118.055 53.6858C117.188 55.3458 115.945 56.6251 114.328 57.5239C112.72 58.4226 110.875 58.8719 108.793 58.8719H102.147ZM106.16 39.0154V55.6683H108.777C110.881 55.6683 112.493 55.0127 113.614 53.7016C114.745 52.38 115.322 50.4874 115.343 48.0238V46.7392C115.343 44.2333 114.798 42.3195 113.709 40.9979C112.62 39.6762 111.039 39.0154 108.967 39.0154H106.16ZM127.602 58.8719H123.606V35.78H127.602V58.8719ZM139.624 46.7233L144.937 35.78H149.378L141.638 50.3711V58.8719H137.61V50.3711L129.854 35.78H134.311L139.624 46.7233ZM168.457 49.9746H163.985V58.8719H159.972V35.78H168.093C170.757 35.78 172.814 36.3774 174.262 37.5722C175.711 38.7669 176.435 40.4957 176.435 42.7583C176.435 44.302 176.059 45.5972 175.309 46.644C174.569 47.6802 173.532 48.4785 172.2 49.0388L177.386 58.6658V58.8719H173.088L168.457 49.9746ZM163.985 46.755H168.108C169.462 46.755 170.519 46.4167 171.28 45.74C172.042 45.0527 172.422 44.117 172.422 42.9328C172.422 41.6957 172.068 40.7388 171.36 40.0622C170.662 39.3855 169.615 39.0365 168.219 39.0154H163.985V46.755ZM187.426 59.1891C184.983 59.1891 183.001 58.4226 181.478 56.8895C179.966 55.3458 179.21 53.2946 179.21 50.7358V50.26C179.21 48.5472 179.538 47.0193 180.194 45.6765C180.86 44.3232 181.79 43.2711 182.985 42.5204C184.18 41.7697 185.512 41.3944 186.982 41.3944C189.318 41.3944 191.121 42.1398 192.39 43.6306C193.669 45.1214 194.309 47.2308 194.309 49.9587V51.513H183.096C183.212 52.9298 183.683 54.0505 184.508 54.8753C185.343 55.7 186.39 56.1123 187.648 56.1123C189.413 56.1123 190.851 55.3986 191.962 53.9713L194.039 55.9537C193.352 56.9793 192.432 57.7776 191.28 58.3486C190.138 58.909 188.853 59.1891 187.426 59.1891ZM186.966 44.4871C185.908 44.4871 185.052 44.8571 184.396 45.5972C183.752 46.3374 183.339 47.3683 183.159 48.6899H190.503V48.4044C190.418 47.1145 190.074 46.1418 189.472 45.4862C188.869 44.8201 188.034 44.4871 186.966 44.4871ZM204.364 56.1123C205.326 56.1123 206.125 55.8321 206.759 55.2718C207.393 54.7114 207.732 54.0188 207.774 53.1941H211.406C211.364 54.262 211.03 55.2612 210.407 56.1916C209.783 57.1115 208.937 57.8411 207.869 58.3803C206.801 58.9195 205.649 59.1891 204.412 59.1891C202.012 59.1891 200.108 58.412 198.702 56.8577C197.296 55.3035 196.593 53.1571 196.593 50.4186V50.0221C196.593 47.4106 197.291 45.3223 198.686 43.7575C200.082 42.1821 201.985 41.3944 204.396 41.3944C206.436 41.3944 208.096 41.9918 209.376 43.1865C210.666 44.3707 211.342 45.9303 211.406 47.8652H207.774C207.732 46.8819 207.393 46.073 206.759 45.4386C206.135 44.8042 205.337 44.4871 204.364 44.4871C203.116 44.4871 202.154 44.9417 201.478 45.851C200.801 46.7497 200.457 48.119 200.447 49.9587V50.5772C200.447 52.4381 200.78 53.8285 201.446 54.7484C202.123 55.6577 203.095 56.1123 204.364 56.1123ZM218.115 43.583C219.373 42.1239 220.964 41.3944 222.888 41.3944C226.547 41.3944 228.402 43.4826 228.455 47.659V58.8719H224.601V47.8018C224.601 46.6176 224.342 45.7823 223.824 45.2959C223.317 44.799 222.566 44.5505 221.572 44.5505C220.028 44.5505 218.876 45.2378 218.115 46.6123V58.8719H214.261V34.5112H218.115V43.583ZM239.922 59.1891C237.479 59.1891 235.497 58.4226 233.974 56.8895C232.462 55.3458 231.706 53.2946 231.706 50.7358V50.26C231.706 48.5472 232.034 47.0193 232.69 45.6765C233.356 44.3232 234.286 43.2711 235.481 42.5204C236.676 41.7697 238.008 41.3944 239.478 41.3944C241.814 41.3944 243.617 42.1398 244.886 43.6306C246.165 45.1214 246.805 47.2308 246.805 49.9587V51.513H235.592C235.708 52.9298 236.179 54.0505 237.004 54.8753C237.839 55.7 238.886 56.1123 240.144 56.1123C241.91 56.1123 243.348 55.3986 244.458 53.9713L246.535 55.9537C245.848 56.9793 244.928 57.7776 243.776 58.3486C242.634 58.909 241.349 59.1891 239.922 59.1891ZM239.462 44.4871C238.405 44.4871 237.548 44.8571 236.893 45.5972C236.248 46.3374 235.835 47.3683 235.656 48.6899H242.999V48.4044C242.914 47.1145 242.57 46.1418 241.968 45.4862C241.365 44.8201 240.53 44.4871 239.462 44.4871ZM253.387 41.7116L253.498 43.6941C254.767 42.1609 256.432 41.3944 258.494 41.3944C262.068 41.3944 263.886 43.4403 263.95 47.5321V58.8719H260.096V47.7542C260.096 46.6651 259.858 45.8616 259.382 45.3435C258.917 44.8148 258.15 44.5505 257.082 44.5505C255.528 44.5505 254.37 45.2536 253.609 46.6599V58.8719H249.755V41.7116H253.387ZM271.515 41.7116L271.626 43.5037C272.831 42.0975 274.481 41.3944 276.574 41.3944C278.868 41.3944 280.439 42.272 281.284 44.0271C282.532 42.272 284.287 41.3944 286.55 41.3944C288.442 41.3944 289.849 41.9178 290.769 42.9645C291.699 44.0113 292.175 45.555 292.196 47.5956V58.8719H288.342V47.7066C288.342 46.6176 288.104 45.8193 287.628 45.3118C287.153 44.8042 286.365 44.5505 285.265 44.5505C284.388 44.5505 283.669 44.7884 283.108 45.2642C282.558 45.7294 282.173 46.3427 281.951 47.1039L281.966 58.8719H278.112V47.5797C278.06 45.5602 277.029 44.5505 275.02 44.5505C273.476 44.5505 272.382 45.1796 271.737 46.4378V58.8719H267.883V41.7116H271.515ZM303.71 59.1891C301.268 59.1891 299.285 58.4226 297.763 56.8895C296.251 55.3458 295.495 53.2946 295.495 50.7358V50.26C295.495 48.5472 295.823 47.0193 296.478 45.6765C297.144 44.3232 298.075 43.2711 299.269 42.5204C300.464 41.7697 301.796 41.3944 303.266 41.3944C305.603 41.3944 307.406 42.1398 308.674 43.6306C309.954 45.1214 310.593 47.2308 310.593 49.9587V51.513H299.381C299.497 52.9298 299.967 54.0505 300.792 54.8753C301.627 55.7 302.674 56.1123 303.932 56.1123C305.698 56.1123 307.136 55.3986 308.246 53.9713L310.324 55.9537C309.637 56.9793 308.717 57.7776 307.564 58.3486C306.422 58.909 305.138 59.1891 303.71 59.1891ZM303.25 44.4871C302.193 44.4871 301.337 44.8571 300.681 45.5972C300.036 46.3374 299.624 47.3683 299.444 48.6899H306.787V48.4044C306.702 47.1145 306.359 46.1418 305.756 45.4862C305.153 44.8201 304.318 44.4871 303.25 44.4871ZM317.699 58.8719H313.845V41.7116H317.699V58.8719ZM313.607 37.255C313.607 36.6629 313.792 36.1712 314.162 35.78C314.543 35.3888 315.082 35.1932 315.78 35.1932C316.477 35.1932 317.017 35.3888 317.397 35.78C317.778 36.1712 317.968 36.6629 317.968 37.255C317.968 37.8365 317.778 38.3229 317.397 38.7141C317.017 39.0947 316.477 39.285 315.78 39.285C315.082 39.285 314.543 39.0947 314.162 38.7141C313.792 38.3229 313.607 37.8365 313.607 37.255ZM331.528 54.2091C331.528 53.5219 331.243 52.9985 330.672 52.639C330.112 52.2795 329.176 51.9623 327.865 51.6874C326.554 51.4125 325.459 51.0636 324.582 50.6407C322.657 49.7102 321.695 48.3621 321.695 46.5964C321.695 45.1162 322.319 43.8791 323.567 42.8852C324.814 41.8913 326.4 41.3944 328.325 41.3944C330.376 41.3944 332.031 41.9019 333.289 42.9169C334.558 43.932 335.192 45.2483 335.192 46.866H331.338C331.338 46.1259 331.063 45.5127 330.513 45.0263C329.964 44.5293 329.234 44.2809 328.325 44.2809C327.479 44.2809 326.786 44.4765 326.247 44.8677C325.718 45.2589 325.454 45.7823 325.454 46.4378C325.454 47.0299 325.703 47.4899 326.2 47.8176C326.696 48.1454 327.701 48.4785 329.213 48.8168C330.725 49.1446 331.909 49.5411 332.766 50.0063C333.633 50.4609 334.272 51.0107 334.685 51.6557C335.107 52.3007 335.319 53.0831 335.319 54.003C335.319 55.5467 334.679 56.7996 333.4 57.7618C332.121 58.7133 330.445 59.1891 328.372 59.1891C326.966 59.1891 325.713 58.9354 324.614 58.4279C323.514 57.9204 322.657 57.2225 322.044 56.3344C321.431 55.4462 321.124 54.4893 321.124 53.4637H324.867C324.92 54.373 325.264 55.0762 325.898 55.5731C326.533 56.0595 327.373 56.3027 328.42 56.3027C329.435 56.3027 330.207 56.1123 330.735 55.7317C331.264 55.3405 331.528 54.833 331.528 54.2091ZM343.518 37.5404V41.7116H346.548V44.5664H343.518V54.1457C343.518 54.8013 343.645 55.277 343.899 55.5731C344.163 55.8586 344.629 56.0013 345.295 56.0013C345.739 56.0013 346.188 55.9484 346.643 55.8427V58.8244C345.765 59.0676 344.919 59.1891 344.105 59.1891C341.145 59.1891 339.665 57.5556 339.665 54.2884V44.5664H336.841V41.7116H339.665V37.5404H343.518ZM357.063 59.1891C354.62 59.1891 352.638 58.4226 351.115 56.8895C349.603 55.3458 348.847 53.2946 348.847 50.7358V50.26C348.847 48.5472 349.175 47.0193 349.831 45.6765C350.497 44.3232 351.427 43.2711 352.622 42.5204C353.817 41.7697 355.149 41.3944 356.619 41.3944C358.955 41.3944 360.758 42.1398 362.027 43.6306C363.306 45.1214 363.946 47.2308 363.946 49.9587V51.513H352.733C352.849 52.9298 353.32 54.0505 354.145 54.8753C354.98 55.7 356.027 56.1123 357.285 56.1123C359.051 56.1123 360.489 55.3986 361.599 53.9713L363.676 55.9537C362.989 56.9793 362.069 57.7776 360.917 58.3486C359.775 58.909 358.49 59.1891 357.063 59.1891ZM356.603 44.4871C355.546 44.4871 354.689 44.8571 354.034 45.5972C353.389 46.3374 352.976 47.3683 352.797 48.6899H360.14V48.4044C360.055 47.1145 359.711 46.1418 359.109 45.4862C358.506 44.8201 357.671 44.4871 356.603 44.4871ZM375.936 45.2325C375.429 45.1479 374.905 45.1056 374.366 45.1056C372.6 45.1056 371.411 45.7823 370.797 47.1356V58.8719H366.944V41.7116H370.623L370.718 43.6306C371.649 42.1398 372.939 41.3944 374.588 41.3944C375.138 41.3944 375.592 41.4684 375.952 41.6164L375.936 45.2325Z" fill="black"/>
<path d="M58.5135 48.2855C58.6467 48.2386 58.7669 48.2674 58.8742 48.3719C58.9815 48.4763 59.0137 48.596 58.9709 48.7308L57.9565 53.039C57.9407 53.1119 57.9108 53.171 57.8668 53.2164C57.8173 53.2675 57.762 53.302 57.7009 53.3197C57.5564 53.3556 57.4334 53.324 57.3318 53.2251L56.2477 52.1695L49.168 59.4757C49.699 59.5845 50.3931 59.8025 51.2503 60.1296C51.5472 60.2421 51.7699 60.3238 51.9183 60.3745C52.0667 60.4252 52.271 60.4918 52.5313 60.5742C52.7916 60.6566 52.9985 60.7092 53.1521 60.7318C53.3057 60.7545 53.476 60.7713 53.6629 60.7823C53.8498 60.7933 54.0098 60.7753 54.143 60.7285C54.2762 60.6816 54.3895 60.6099 54.483 60.5134L55.2752 59.696L54.4621 58.9043C54.3831 58.8274 54.3429 58.7386 54.3416 58.638C54.3403 58.5374 54.3781 58.4474 54.4552 58.3679L57.0956 55.643C57.1726 55.5636 57.2613 55.523 57.3616 55.5214C57.4619 55.5198 57.5516 55.5575 57.6306 55.6344L60.3408 58.2732C60.4198 58.3502 60.46 58.4389 60.4613 58.5395C60.4626 58.6401 60.4248 58.7301 60.3477 58.8096L57.7073 61.5345C57.6303 61.614 57.5416 61.6545 57.4413 61.6561C57.341 61.6578 57.2513 61.6201 57.1723 61.5431L56.3592 60.7515L55.5671 61.5689C55.3911 61.7506 55.195 61.8963 54.9791 62.0059C54.7631 62.1156 54.5565 62.1957 54.3592 62.2464C54.162 62.2971 53.9239 62.3135 53.6449 62.2956C53.3659 62.2778 53.1343 62.2564 52.95 62.2314C52.7657 62.2064 52.5127 62.1448 52.1909 62.0466C51.869 61.9484 51.6283 61.8712 51.4687 61.8151C51.3091 61.759 51.0613 61.6722 50.7253 61.5547C50.2995 61.3939 49.9677 61.2749 49.7298 61.1977C49.4918 61.1205 49.2093 61.044 48.8822 60.9682C48.5551 60.8925 48.2817 60.8717 48.0619 60.906C47.8422 60.9402 47.6663 61.0255 47.5343 61.1618L44.5638 64.2273C44.917 64.814 45.0563 65.4516 44.9816 66.1402C44.907 66.8287 44.6276 67.4228 44.1435 67.9224C43.5604 68.5241 42.8508 68.8317 42.0148 68.8452C41.1788 68.8586 40.4615 68.574 39.863 67.9913C39.2646 67.4085 38.9599 66.6981 38.949 65.86C38.9381 65.022 39.2242 64.302 39.8073 63.7003C40.2914 63.2007 40.8756 62.9035 41.5601 62.8087C42.2445 62.7138 42.8844 62.8349 43.4797 63.1718L44.3379 62.2862C44.4699 62.1499 44.5498 61.9712 44.5776 61.75C44.6054 61.5288 44.5767 61.2555 44.4917 60.9299C44.4066 60.6044 44.3221 60.3235 44.2382 60.0874C44.1543 59.8512 44.026 59.5222 43.8533 59.1002C43.7263 58.767 43.6325 58.5212 43.5719 58.3629C43.5113 58.2046 43.4274 57.9656 43.3201 57.646C43.2128 57.3264 43.1441 57.0747 43.1138 56.8907C43.0835 56.7068 43.0554 56.4753 43.0295 56.1963C43.0036 55.9173 43.013 55.6783 43.0578 55.4792C43.1026 55.2801 43.1766 55.0707 43.2796 54.8511C43.3827 54.6315 43.5222 54.4309 43.6983 54.2492L44.5812 53.3381C44.3748 52.9055 44.3062 52.4525 44.3754 51.9792C44.4445 51.5059 44.6495 51.0932 44.9906 50.7413C45.4307 50.2871 45.9628 50.055 46.5871 50.045C47.2113 50.0349 47.7493 50.2498 48.2009 50.6896C48.6526 51.1294 48.8825 51.6622 48.8907 52.2879C48.8988 52.9137 48.6828 53.4537 48.2428 53.9078C47.9017 54.2598 47.4962 54.4773 47.0262 54.5603C46.5562 54.6433 46.1026 54.5877 45.6652 54.3936L44.7823 55.3047C44.6888 55.4012 44.6206 55.5169 44.5778 55.6517C44.5349 55.7865 44.5217 55.9474 44.538 56.1343C44.5544 56.3213 44.5761 56.4914 44.6032 56.6446C44.6303 56.7979 44.6887 57.0037 44.7785 57.2621C44.8682 57.5205 44.9406 57.7233 44.9954 57.8706C45.0503 58.0178 45.1382 58.2385 45.2591 58.5327C45.6102 59.3821 45.8477 60.0712 45.9716 60.6001L55.1637 51.114L54.0796 50.0585C53.978 49.9595 53.9429 49.8372 53.9745 49.6914C54.006 49.5456 54.0969 49.4575 54.247 49.4271L58.5135 48.2855Z" fill="black"/>
<path d="M77.5362 55.9497L92.523 40.9254C93.4441 40.0021 93.4463 38.5123 92.528 37.5918L70.1158 15.1235C69.1975 14.2029 67.7115 14.2052 66.7905 15.1286L51.8036 30.1528C48.3692 26.7098 42.8669 26.6296 39.5417 29.9631L21.0163 48.5348C20.7874 48.7643 20.7868 49.1393 21.0151 49.3682L23.9204 52.2807C24.1486 52.5096 24.5227 52.509 24.7517 52.2795L43.2771 33.7078C44.5416 32.4401 46.6873 32.5358 48.0621 33.9141L73.7843 59.7006C75.1591 61.0788 75.2546 63.2299 73.9901 64.4976L55.4647 83.0693C55.2358 83.2988 55.2352 83.6739 55.4635 83.9027L58.3687 86.8153C58.597 87.0441 58.9711 87.0435 59.2001 86.814L77.7254 68.2423C81.0506 64.9088 80.9706 59.3928 77.5362 55.9497V55.9497ZM55.539 33.8975L68.4443 20.96L86.7061 39.2674L73.8008 52.205L55.539 33.8975ZM71.3395 30.5399L68.8493 28.0434C68.621 27.8146 68.2469 27.8151 68.0179 28.0447L65.5201 30.5487C65.2912 30.7783 65.2906 31.1533 65.5189 31.3821L68.0091 33.8786C68.2374 34.1074 68.6115 34.1069 68.8405 33.8773L71.3383 31.3733C71.5672 31.1438 71.5678 30.7687 71.3395 30.5399ZM79.6404 38.8614L77.1501 36.365C76.9218 36.1361 76.5477 36.1367 76.3188 36.3662L73.821 38.8703C73.592 39.0998 73.5914 39.4749 73.8197 39.7037L76.31 42.2002C76.5382 42.429 76.9123 42.4284 77.1413 42.1989L79.6391 39.6949C79.8681 39.4653 79.8686 39.0903 79.6404 38.8614Z" fill="black"/>
<path d="M435.886 35.0405C434.99 34.493 433.752 34.5077 432.838 33.9371C431.054 32.8126 430.594 31.1659 430.518 28.7253C426.618 24.0631 420.79 19.9337 412.675 20.0643C410.475 20.1001 408.404 19.9906 406.696 20.9803C406.208 21.7257 406.689 22.0669 407.242 22.2437C406.692 22.5322 405.931 22.5512 406.056 23.7094C411.206 22.9028 420.209 25.0234 419.529 29.9551C419.378 31.05 418.138 32.2209 417.295 33.2464C414.906 36.1565 412.376 38.4055 410.176 40.9682L410.812 41.6757C412.217 40.5807 413.55 40.0227 414.796 40.0227C416.135 40.0227 416.917 40.6481 417.212 40.9345C418.301 39.6331 419.42 38.3149 420.696 37.0325C421.618 36.0976 422.676 34.7162 423.659 34.5519L425.454 34.3414C427.642 34.4382 429.121 34.952 430.13 36.9315C430.641 37.9464 430.628 39.332 431.119 40.3302C431.45 41.0145 432.893 42.8992 433.61 42.9202C434.167 42.9371 434.752 42.4991 435.314 41.8884L437.268 39.709C437.817 39.0899 438.215 38.4455 438.2 37.8222C438.188 37.022 436.496 35.4111 435.884 35.0426L435.886 35.0405ZM406.507 46.6053L405.106 45.0471C399.161 50.6105 392.761 57.1299 387.062 63.1314C386.165 64.0663 384.311 65.2835 384.209 66.3743C384.052 68.0167 386.008 69.4592 387.06 70.5858C388.111 71.7082 389.351 73.9592 390.834 73.7655C391.799 73.6749 392.907 71.5965 393.757 70.6026C398.195 65.4275 402.539 60.155 406.789 54.7883C406.198 54.0092 405.846 53.5354 405.846 53.5354C405.587 53.1311 404.155 50.6505 406.509 46.6074L406.507 46.6053ZM420.934 47.216C420.241 46.5464 418.159 47.5171 417.57 46.9591C416.983 46.4011 417.892 44.31 417.456 43.8973L415.998 42.537C415.998 42.537 414.364 40.7892 410.672 44.4911L395.942 28.1083C395.194 27.2765 395.493 24.2716 395.493 24.2716L388.514 19.8495L386.822 21.7341L390.798 29.4981C390.798 29.4981 393.502 29.1654 394.251 29.9972L409.004 46.4074C406.07 50.2609 407.308 52.2025 407.308 52.2025C407.308 52.2025 407.758 52.8068 408.531 53.8239C408.902 54.3082 410.78 53.2975 411.286 53.9502C411.786 54.6093 410.915 56.9194 411.513 57.6943C416.561 64.1464 424.626 73.9845 426.896 73.9845C428.585 73.9845 430.721 72.4599 432.478 70.531C434.229 68.6 435.583 66.2037 435.583 64.3253C435.583 61.7984 426.734 52.8321 420.932 47.2181L420.934 47.216Z" fill="black"/>
</g>
<defs>
<filter id="filter0_d" x="3.5" y="0" width="459" height="104.638" filterUnits="userSpaceOnUse" color-interpolation-filters="sRGB">
<feFlood flood-opacity="0" result="BackgroundImageFix"/>
<feColorMatrix in="SourceAlpha" type="matrix" values="0 0 0 0 0 0 0 0 0 0 0 0 0 0 0 0 0 0 127 0"/>
<feOffset dy="4.5"/>
<feGaussianBlur stdDeviation="2.25"/>
<feColorMatrix type="matrix" values="0 0 0 0 0 0 0 0 0 0 0 0 0 0 0 0 0 0 0.25 0"/>
<feBlend mode="normal" in2="BackgroundImageFix" result="effect1_dropShadow"/>
<feBlend mode="normal" in="SourceGraphic" in2="effect1_dropShadow" result="shape"/>
</filter>
<filter id="filter1_d" x="0.782" y="0" width="464.436" height="110.074" filterUnits="userSpaceOnUse" color-interpolation-filters="sRGB">
<feFlood flood-opacity="0" result="BackgroundImageFix"/>
<feColorMatrix in="SourceAlpha" type="matrix" values="0 0 0 0 0 0 0 0 0 0 0 0 0 0 0 0 0 0 127 0"/>
<feOffset dy="7.218"/>
<feGaussianBlur stdDeviation="3.609"/>
<feColorMatrix type="matrix" values="0 0 0 0 0 0 0 0 0 0 0 0 0 0 0 0 0 0 0.25 0"/>
<feBlend mode="normal" in2="BackgroundImageFix" result="effect1_dropShadow"/>
<feBlend mode="normal" in="SourceGraphic" in2="effect1_dropShadow" result="shape"/>
</filter>
</defs>
</svg>
